mtllib gm_floor_1.cube.mtl
usemtl material0
v 0.5 0.5 0.5
v -0.5 0.5 0.5
v -0.5 -0.5 0.5
v 0.5 -0.5 0.5
v 0.5 0.5 0.5
v 0.5 0.5 -0.5
v -0.5 0.5 -0.5
v -0.5 0.5 0.5
v 0.5 -0.5 -0.5
v -0.5 -0.5 -0.5
v -0.5 0.5 -0.5
v 0.5 0.5 -0.5
v 0.5 -0.5 0.5
v -0.5 -0.5 0.5
v -0.5 -0.5 -0.5
v 0.5 -0.5 -0.5
v 0.5 0.5 0.5
v 0.5 -0.5 0.5
v 0.5 -0.5 -0.5
v 0.5 0.5 -0.5
v -0.5 0.5 0.5
v -0.5 0.5 -0.5
v -0.5 -0.5 -0.5
v -0.5 -0.5 0.5
v 0.0 0.0 0.5
v 0.0 0.5 0.0
v 0.0 0.0 -0.5
v 0.0 -0.5 0.0
v 0.5 0.0 0.0
v -0.5 0.0 0.0
vt 0.18359375 1.0
vt 0.18359375 0.0
vn 0.0 0.0 0.5
vn 0.0 0.5 0.0
vn 0.0 0.0 -0.5
vn 0.0 -0.5 0.0
vn 0.5 0.0 0.0
vn -0.5 0.0 0.0
f 25/1/1 1/2/1 2/2/1
f 25/1/1 2/2/1 3/2/1
f 25/1/1 3/2/1 4/2/1
f 25/1/1 4/2/1 1/2/1
f 26/1/2 5/2/2 6/2/2
f 26/1/2 6/2/2 7/2/2
f 26/1/2 7/2/2 8/2/2
f 26/1/2 8/2/2 5/2/2
f 27/1/3 9/2/3 10/2/3
f 27/1/3 10/2/3 11/2/3
f 27/1/3 11/2/3 12/2/3
f 27/1/3 12/2/3 9/2/3
f 28/1/4 13/2/4 14/2/4
f 28/1/4 14/2/4 15/2/4
f 28/1/4 15/2/4 16/2/4
f 28/1/4 16/2/4 13/2/4
f 29/1/5 17/2/5 18/2/5
f 29/1/5 18/2/5 19/2/5
f 29/1/5 19/2/5 20/2/5
f 29/1/5 20/2/5 17/2/5
f 30/1/6 21/2/6 22/2/6
f 30/1/6 22/2/6 23/2/6
f 30/1/6 23/2/6 24/2/6
f 30/1/6 24/2/6 21/2/6
v 0.5 1.5 1.5
v -0.5 1.5 1.5
v -0.5 0.5 1.5
v 0.5 0.5 1.5
v 0.5 1.5 1.5
v 0.5 1.5 0.5
v -0.5 1.5 0.5
v -0.5 1.5 1.5
v 0.5 0.5 0.5
v -0.5 0.5 0.5
v -0.5 1.5 0.5
v 0.5 1.5 0.5
v 0.5 0.5 1.5
v -0.5 0.5 1.5
v -0.5 0.5 0.5
v 0.5 0.5 0.5
v 0.5 1.5 1.5
v 0.5 0.5 1.5
v 0.5 0.5 0.5
v 0.5 1.5 0.5
v -0.5 1.5 1.5
v -0.5 1.5 0.5
v -0.5 0.5 0.5
v -0.5 0.5 1.5
v 0.0 1.0 1.5
v 0.0 1.5 1.0
v 0.0 1.0 0.5
v 0.0 0.5 1.0
v 0.5 1.0 1.0
v -0.5 1.0 1.0
vt 0.18359375 1.0
vt 0.18359375 0.0
vn 0.0 0.0 0.5
vn 0.0 0.5 0.0
vn 0.0 0.0 -0.5
vn 0.0 -0.5 0.0
vn 0.5 0.0 0.0
vn -0.5 0.0 0.0
f 55/3/1 31/4/1 32/4/1
f 55/3/1 32/4/1 33/4/1
f 55/3/1 33/4/1 34/4/1
f 55/3/1 34/4/1 31/4/1
f 56/3/2 35/4/2 36/4/2
f 56/3/2 36/4/2 37/4/2
f 56/3/2 37/4/2 38/4/2
f 56/3/2 38/4/2 35/4/2
f 57/3/3 39/4/3 40/4/3
f 57/3/3 40/4/3 41/4/3
f 57/3/3 41/4/3 42/4/3
f 57/3/3 42/4/3 39/4/3
f 58/3/4 43/4/4 44/4/4
f 58/3/4 44/4/4 45/4/4
f 58/3/4 45/4/4 46/4/4
f 58/3/4 46/4/4 43/4/4
f 59/3/5 47/4/5 48/4/5
f 59/3/5 48/4/5 49/4/5
f 59/3/5 49/4/5 50/4/5
f 59/3/5 50/4/5 47/4/5
f 60/3/6 51/4/6 52/4/6
f 60/3/6 52/4/6 53/4/6
f 60/3/6 53/4/6 54/4/6
f 60/3/6 54/4/6 51/4/6
v 1.5 1.5 0.5
v 0.5 1.5 0.5
v 0.5 0.5 0.5
v 1.5 0.5 0.5
v 1.5 1.5 0.5
v 1.5 1.5 -0.5
v 0.5 1.5 -0.5
v 0.5 1.5 0.5
v 1.5 0.5 -0.5
v 0.5 0.5 -0.5
v 0.5 1.5 -0.5
v 1.5 1.5 -0.5
v 1.5 0.5 0.5
v 0.5 0.5 0.5
v 0.5 0.5 -0.5
v 1.5 0.5 -0.5
v 1.5 1.5 0.5
v 1.5 0.5 0.5
v 1.5 0.5 -0.5
v 1.5 1.5 -0.5
v 0.5 1.5 0.5
v 0.5 1.5 -0.5
v 0.5 0.5 -0.5
v 0.5 0.5 0.5
v 1.0 1.0 0.5
v 1.0 1.5 0.0
v 1.0 1.0 -0.5
v 1.0 0.5 0.0
v 1.5 1.0 0.0
v 0.5 1.0 0.0
vt 0.18359375 1.0
vt 0.18359375 0.0
vn 0.0 0.0 0.5
vn 0.0 0.5 0.0
vn 0.0 0.0 -0.5
vn 0.0 -0.5 0.0
vn 0.5 0.0 0.0
vn -0.5 0.0 0.0
f 85/5/1 61/6/1 62/6/1
f 85/5/1 62/6/1 63/6/1
f 85/5/1 63/6/1 64/6/1
f 85/5/1 64/6/1 61/6/1
f 86/5/2 65/6/2 66/6/2
f 86/5/2 66/6/2 67/6/2
f 86/5/2 67/6/2 68/6/2
f 86/5/2 68/6/2 65/6/2
f 87/5/3 69/6/3 70/6/3
f 87/5/3 70/6/3 71/6/3
f 87/5/3 71/6/3 72/6/3
f 87/5/3 72/6/3 69/6/3
f 88/5/4 73/6/4 74/6/4
f 88/5/4 74/6/4 75/6/4
f 88/5/4 75/6/4 76/6/4
f 88/5/4 76/6/4 73/6/4
f 89/5/5 77/6/5 78/6/5
f 89/5/5 78/6/5 79/6/5
f 89/5/5 79/6/5 80/6/5
f 89/5/5 80/6/5 77/6/5
f 90/5/6 81/6/6 82/6/6
f 90/5/6 82/6/6 83/6/6
f 90/5/6 83/6/6 84/6/6
f 90/5/6 84/6/6 81/6/6
v -0.5 1.5 0.5
v -1.5 1.5 0.5
v -1.5 0.5 0.5
v -0.5 0.5 0.5
v -0.5 1.5 0.5
v -0.5 1.5 -0.5
v -1.5 1.5 -0.5
v -1.5 1.5 0.5
v -0.5 0.5 -0.5
v -1.5 0.5 -0.5
v -1.5 1.5 -0.5
v -0.5 1.5 -0.5
v -0.5 0.5 0.5
v -1.5 0.5 0.5
v -1.5 0.5 -0.5
v -0.5 0.5 -0.5
v -0.5 1.5 0.5
v -0.5 0.5 0.5
v -0.5 0.5 -0.5
v -0.5 1.5 -0.5
v -1.5 1.5 0.5
v -1.5 1.5 -0.5
v -1.5 0.5 -0.5
v -1.5 0.5 0.5
v -1.0 1.0 0.5
v -1.0 1.5 0.0
v -1.0 1.0 -0.5
v -1.0 0.5 0.0
v -0.5 1.0 0.0
v -1.5 1.0 0.0
vt 0.18359375 1.0
vt 0.18359375 0.0
vn 0.0 0.0 0.5
vn 0.0 0.5 0.0
vn 0.0 0.0 -0.5
vn 0.0 -0.5 0.0
vn 0.5 0.0 0.0
vn -0.5 0.0 0.0
f 115/7/1 91/8/1 92/8/1
f 115/7/1 92/8/1 93/8/1
f 115/7/1 93/8/1 94/8/1
f 115/7/1 94/8/1 91/8/1
f 116/7/2 95/8/2 96/8/2
f 116/7/2 96/8/2 97/8/2
f 116/7/2 97/8/2 98/8/2
f 116/7/2 98/8/2 95/8/2
f 117/7/3 99/8/3 100/8/3
f 117/7/3 100/8/3 101/8/3
f 117/7/3 101/8/3 102/8/3
f 117/7/3 102/8/3 99/8/3
f 118/7/4 103/8/4 104/8/4
f 118/7/4 104/8/4 105/8/4
f 118/7/4 105/8/4 106/8/4
f 118/7/4 106/8/4 103/8/4
f 119/7/5 107/8/5 108/8/5
f 119/7/5 108/8/5 109/8/5
f 119/7/5 109/8/5 110/8/5
f 119/7/5 110/8/5 107/8/5
f 120/7/6 111/8/6 112/8/6
f 120/7/6 112/8/6 113/8/6
f 120/7/6 113/8/6 114/8/6
f 120/7/6 114/8/6 111/8/6
v -0.5 1.5 1.5
v -1.5 1.5 1.5
v -1.5 0.5 1.5
v -0.5 0.5 1.5
v -0.5 1.5 1.5
v -0.5 1.5 0.5
v -1.5 1.5 0.5
v -1.5 1.5 1.5
v -0.5 0.5 0.5
v -1.5 0.5 0.5
v -1.5 1.5 0.5
v -0.5 1.5 0.5
v -0.5 0.5 1.5
v -1.5 0.5 1.5
v -1.5 0.5 0.5
v -0.5 0.5 0.5
v -0.5 1.5 1.5
v -0.5 0.5 1.5
v -0.5 0.5 0.5
v -0.5 1.5 0.5
v -1.5 1.5 1.5
v -1.5 1.5 0.5
v -1.5 0.5 0.5
v -1.5 0.5 1.5
v -1.0 1.0 1.5
v -1.0 1.5 1.0
v -1.0 1.0 0.5
v -1.0 0.5 1.0
v -0.5 1.0 1.0
v -1.5 1.0 1.0
vt 0.18359375 1.0
vt 0.18359375 0.0
vn 0.0 0.0 0.5
vn 0.0 0.5 0.0
vn 0.0 0.0 -0.5
vn 0.0 -0.5 0.0
vn 0.5 0.0 0.0
vn -0.5 0.0 0.0
f 145/9/1 121/10/1 122/10/1
f 145/9/1 122/10/1 123/10/1
f 145/9/1 123/10/1 124/10/1
f 145/9/1 124/10/1 121/10/1
f 146/9/2 125/10/2 126/10/2
f 146/9/2 126/10/2 127/10/2
f 146/9/2 127/10/2 128/10/2
f 146/9/2 128/10/2 125/10/2
f 147/9/3 129/10/3 130/10/3
f 147/9/3 130/10/3 131/10/3
f 147/9/3 131/10/3 132/10/3
f 147/9/3 132/10/3 129/10/3
f 148/9/4 133/10/4 134/10/4
f 148/9/4 134/10/4 135/10/4
f 148/9/4 135/10/4 136/10/4
f 148/9/4 136/10/4 133/10/4
f 149/9/5 137/10/5 138/10/5
f 149/9/5 138/10/5 139/10/5
f 149/9/5 139/10/5 140/10/5
f 149/9/5 140/10/5 137/10/5
f 150/9/6 141/10/6 142/10/6
f 150/9/6 142/10/6 143/10/6
f 150/9/6 143/10/6 144/10/6
f 150/9/6 144/10/6 141/10/6
v 1.5 1.5 1.5
v 0.5 1.5 1.5
v 0.5 0.5 1.5
v 1.5 0.5 1.5
v 1.5 1.5 1.5
v 1.5 1.5 0.5
v 0.5 1.5 0.5
v 0.5 1.5 1.5
v 1.5 0.5 0.5
v 0.5 0.5 0.5
v 0.5 1.5 0.5
v 1.5 1.5 0.5
v 1.5 0.5 1.5
v 0.5 0.5 1.5
v 0.5 0.5 0.5
v 1.5 0.5 0.5
v 1.5 1.5 1.5
v 1.5 0.5 1.5
v 1.5 0.5 0.5
v 1.5 1.5 0.5
v 0.5 1.5 1.5
v 0.5 1.5 0.5
v 0.5 0.5 0.5
v 0.5 0.5 1.5
v 1.0 1.0 1.5
v 1.0 1.5 1.0
v 1.0 1.0 0.5
v 1.0 0.5 1.0
v 1.5 1.0 1.0
v 0.5 1.0 1.0
vt 0.18359375 1.0
vt 0.18359375 0.0
vn 0.0 0.0 0.5
vn 0.0 0.5 0.0
vn 0.0 0.0 -0.5
vn 0.0 -0.5 0.0
vn 0.5 0.0 0.0
vn -0.5 0.0 0.0
f 175/11/1 151/12/1 152/12/1
f 175/11/1 152/12/1 153/12/1
f 175/11/1 153/12/1 154/12/1
f 175/11/1 154/12/1 151/12/1
f 176/11/2 155/12/2 156/12/2
f 176/11/2 156/12/2 157/12/2
f 176/11/2 157/12/2 158/12/2
f 176/11/2 158/12/2 155/12/2
f 177/11/3 159/12/3 160/12/3
f 177/11/3 160/12/3 161/12/3
f 177/11/3 161/12/3 162/12/3
f 177/11/3 162/12/3 159/12/3
f 178/11/4 163/12/4 164/12/4
f 178/11/4 164/12/4 165/12/4
f 178/11/4 165/12/4 166/12/4
f 178/11/4 166/12/4 163/12/4
f 179/11/5 167/12/5 168/12/5
f 179/11/5 168/12/5 169/12/5
f 179/11/5 169/12/5 170/12/5
f 179/11/5 170/12/5 167/12/5
f 180/11/6 171/12/6 172/12/6
f 180/11/6 172/12/6 173/12/6
f 180/11/6 173/12/6 174/12/6
f 180/11/6 174/12/6 171/12/6
v -0.5 1.5 -0.5
v -1.5 1.5 -0.5
v -1.5 0.5 -0.5
v -0.5 0.5 -0.5
v -0.5 1.5 -0.5
v -0.5 1.5 -1.5
v -1.5 1.5 -1.5
v -1.5 1.5 -0.5
v -0.5 0.5 -1.5
v -1.5 0.5 -1.5
v -1.5 1.5 -1.5
v -0.5 1.5 -1.5
v -0.5 0.5 -0.5
v -1.5 0.5 -0.5
v -1.5 0.5 -1.5
v -0.5 0.5 -1.5
v -0.5 1.5 -0.5
v -0.5 0.5 -0.5
v -0.5 0.5 -1.5
v -0.5 1.5 -1.5
v -1.5 1.5 -0.5
v -1.5 1.5 -1.5
v -1.5 0.5 -1.5
v -1.5 0.5 -0.5
v -1.0 1.0 -0.5
v -1.0 1.5 -1.0
v -1.0 1.0 -1.5
v -1.0 0.5 -1.0
v -0.5 1.0 -1.0
v -1.5 1.0 -1.0
vt 0.18359375 1.0
vt 0.18359375 0.0
vn 0.0 0.0 0.5
vn 0.0 0.5 0.0
vn 0.0 0.0 -0.5
vn 0.0 -0.5 0.0
vn 0.5 0.0 0.0
vn -0.5 0.0 0.0
f 205/13/1 181/14/1 182/14/1
f 205/13/1 182/14/1 183/14/1
f 205/13/1 183/14/1 184/14/1
f 205/13/1 184/14/1 181/14/1
f 206/13/2 185/14/2 186/14/2
f 206/13/2 186/14/2 187/14/2
f 206/13/2 187/14/2 188/14/2
f 206/13/2 188/14/2 185/14/2
f 207/13/3 189/14/3 190/14/3
f 207/13/3 190/14/3 191/14/3
f 207/13/3 191/14/3 192/14/3
f 207/13/3 192/14/3 189/14/3
f 208/13/4 193/14/4 194/14/4
f 208/13/4 194/14/4 195/14/4
f 208/13/4 195/14/4 196/14/4
f 208/13/4 196/14/4 193/14/4
f 209/13/5 197/14/5 198/14/5
f 209/13/5 198/14/5 199/14/5
f 209/13/5 199/14/5 200/14/5
f 209/13/5 200/14/5 197/14/5
f 210/13/6 201/14/6 202/14/6
f 210/13/6 202/14/6 203/14/6
f 210/13/6 203/14/6 204/14/6
f 210/13/6 204/14/6 201/14/6
v 0.5 1.5 -0.5
v -0.5 1.5 -0.5
v -0.5 0.5 -0.5
v 0.5 0.5 -0.5
v 0.5 1.5 -0.5
v 0.5 1.5 -1.5
v -0.5 1.5 -1.5
v -0.5 1.5 -0.5
v 0.5 0.5 -1.5
v -0.5 0.5 -1.5
v -0.5 1.5 -1.5
v 0.5 1.5 -1.5
v 0.5 0.5 -0.5
v -0.5 0.5 -0.5
v -0.5 0.5 -1.5
v 0.5 0.5 -1.5
v 0.5 1.5 -0.5
v 0.5 0.5 -0.5
v 0.5 0.5 -1.5
v 0.5 1.5 -1.5
v -0.5 1.5 -0.5
v -0.5 1.5 -1.5
v -0.5 0.5 -1.5
v -0.5 0.5 -0.5
v 0.0 1.0 -0.5
v 0.0 1.5 -1.0
v 0.0 1.0 -1.5
v 0.0 0.5 -1.0
v 0.5 1.0 -1.0
v -0.5 1.0 -1.0
vt 0.18359375 1.0
vt 0.18359375 0.0
vn 0.0 0.0 0.5
vn 0.0 0.5 0.0
vn 0.0 0.0 -0.5
vn 0.0 -0.5 0.0
vn 0.5 0.0 0.0
vn -0.5 0.0 0.0
f 235/15/1 211/16/1 212/16/1
f 235/15/1 212/16/1 213/16/1
f 235/15/1 213/16/1 214/16/1
f 235/15/1 214/16/1 211/16/1
f 236/15/2 215/16/2 216/16/2
f 236/15/2 216/16/2 217/16/2
f 236/15/2 217/16/2 218/16/2
f 236/15/2 218/16/2 215/16/2
f 237/15/3 219/16/3 220/16/3
f 237/15/3 220/16/3 221/16/3
f 237/15/3 221/16/3 222/16/3
f 237/15/3 222/16/3 219/16/3
f 238/15/4 223/16/4 224/16/4
f 238/15/4 224/16/4 225/16/4
f 238/15/4 225/16/4 226/16/4
f 238/15/4 226/16/4 223/16/4
f 239/15/5 227/16/5 228/16/5
f 239/15/5 228/16/5 229/16/5
f 239/15/5 229/16/5 230/16/5
f 239/15/5 230/16/5 227/16/5
f 240/15/6 231/16/6 232/16/6
f 240/15/6 232/16/6 233/16/6
f 240/15/6 233/16/6 234/16/6
f 240/15/6 234/16/6 231/16/6
v 1.5 1.5 -0.5
v 0.5 1.5 -0.5
v 0.5 0.5 -0.5
v 1.5 0.5 -0.5
v 1.5 1.5 -0.5
v 1.5 1.5 -1.5
v 0.5 1.5 -1.5
v 0.5 1.5 -0.5
v 1.5 0.5 -1.5
v 0.5 0.5 -1.5
v 0.5 1.5 -1.5
v 1.5 1.5 -1.5
v 1.5 0.5 -0.5
v 0.5 0.5 -0.5
v 0.5 0.5 -1.5
v 1.5 0.5 -1.5
v 1.5 1.5 -0.5
v 1.5 0.5 -0.5
v 1.5 0.5 -1.5
v 1.5 1.5 -1.5
v 0.5 1.5 -0.5
v 0.5 1.5 -1.5
v 0.5 0.5 -1.5
v 0.5 0.5 -0.5
v 1.0 1.0 -0.5
v 1.0 1.5 -1.0
v 1.0 1.0 -1.5
v 1.0 0.5 -1.0
v 1.5 1.0 -1.0
v 0.5 1.0 -1.0
vt 0.18359375 1.0
vt 0.18359375 0.0
vn 0.0 0.0 0.5
vn 0.0 0.5 0.0
vn 0.0 0.0 -0.5
vn 0.0 -0.5 0.0
vn 0.5 0.0 0.0
vn -0.5 0.0 0.0
f 265/17/1 241/18/1 242/18/1
f 265/17/1 242/18/1 243/18/1
f 265/17/1 243/18/1 244/18/1
f 265/17/1 244/18/1 241/18/1
f 266/17/2 245/18/2 246/18/2
f 266/17/2 246/18/2 247/18/2
f 266/17/2 247/18/2 248/18/2
f 266/17/2 248/18/2 245/18/2
f 267/17/3 249/18/3 250/18/3
f 267/17/3 250/18/3 251/18/3
f 267/17/3 251/18/3 252/18/3
f 267/17/3 252/18/3 249/18/3
f 268/17/4 253/18/4 254/18/4
f 268/17/4 254/18/4 255/18/4
f 268/17/4 255/18/4 256/18/4
f 268/17/4 256/18/4 253/18/4
f 269/17/5 257/18/5 258/18/5
f 269/17/5 258/18/5 259/18/5
f 269/17/5 259/18/5 260/18/5
f 269/17/5 260/18/5 257/18/5
f 270/17/6 261/18/6 262/18/6
f 270/17/6 262/18/6 263/18/6
f 270/17/6 263/18/6 264/18/6
f 270/17/6 264/18/6 261/18/6
v 0.5 1.5 0.5
v -0.5 1.5 0.5
v -0.5 0.5 0.5
v 0.5 0.5 0.5
v 0.5 1.5 0.5
v 0.5 1.5 -0.5
v -0.5 1.5 -0.5
v -0.5 1.5 0.5
v 0.5 0.5 -0.5
v -0.5 0.5 -0.5
v -0.5 1.5 -0.5
v 0.5 1.5 -0.5
v 0.5 0.5 0.5
v -0.5 0.5 0.5
v -0.5 0.5 -0.5
v 0.5 0.5 -0.5
v 0.5 1.5 0.5
v 0.5 0.5 0.5
v 0.5 0.5 -0.5
v 0.5 1.5 -0.5
v -0.5 1.5 0.5
v -0.5 1.5 -0.5
v -0.5 0.5 -0.5
v -0.5 0.5 0.5
v 0.0 1.0 0.5
v 0.0 1.5 0.0
v 0.0 1.0 -0.5
v 0.0 0.5 0.0
v 0.5 1.0 0.0
v -0.5 1.0 0.0
vt 0.12890625 1.0
vt 0.12890625 0.0
vn 0.0 0.0 0.5
vn 0.0 0.5 0.0
vn 0.0 0.0 -0.5
vn 0.0 -0.5 0.0
vn 0.5 0.0 0.0
vn -0.5 0.0 0.0
f 295/19/1 271/20/1 272/20/1
f 295/19/1 272/20/1 273/20/1
f 295/19/1 273/20/1 274/20/1
f 295/19/1 274/20/1 271/20/1
f 296/19/2 275/20/2 276/20/2
f 296/19/2 276/20/2 277/20/2
f 296/19/2 277/20/2 278/20/2
f 296/19/2 278/20/2 275/20/2
f 297/19/3 279/20/3 280/20/3
f 297/19/3 280/20/3 281/20/3
f 297/19/3 281/20/3 282/20/3
f 297/19/3 282/20/3 279/20/3
f 298/19/4 283/20/4 284/20/4
f 298/19/4 284/20/4 285/20/4
f 298/19/4 285/20/4 286/20/4
f 298/19/4 286/20/4 283/20/4
f 299/19/5 287/20/5 288/20/5
f 299/19/5 288/20/5 289/20/5
f 299/19/5 289/20/5 290/20/5
f 299/19/5 290/20/5 287/20/5
f 300/19/6 291/20/6 292/20/6
f 300/19/6 292/20/6 293/20/6
f 300/19/6 293/20/6 294/20/6
f 300/19/6 294/20/6 291/20/6
